<?xml version="1.0" encoding="utf-8"?>
<svg viewBox="0 0 500 500" xmlns="http://www.w3.org/2000/svg" xmlns:xlink="http://www.w3.org/1999/xlink">
  <!-- Duży wiatrak -->
  <g>
    <polygon points="151.482,216.312 161.982,216.312 171.5755,212.142 178.6,204.2415 181.8445,194.2525 
                     180.7455,183.812 175.4955,174.719 166.901,168.545 156.732,166.3645 146.563,168.545 
                     137.9685,174.719 132.6185,183.812 131.6205,194.2525 134.864,204.2415 141.8885,212.142"
             style="stroke: rgb(0, 0, 0); fill: none;" transform-origin="157 192">
      <animateTransform attributeName="transform" type="rotate" from="360 157 192" to="360 157 192" dur="3s" repeatCount="indefinite" />
    </polygon>
    <line x1="151.482" y1="216.312" x2="157" y2="192" style="stroke: rgb(0, 0, 0);" />
    <line x1="161.982" y1="216.312" x2="157" y2="192" style="stroke: rgb(0, 0, 0);" />
    <line x1="171.5755" y1="212.142" x2="157" y2="192" style="stroke: rgb(0, 0, 0);" />
    <line x1="178.6" y1="204.2415" x2="157" y2="192" style="stroke: rgb(0, 0, 0);" />
    <line x1="181.8445" y1="194.2525" x2="157" y2="192" style="stroke: rgb(0, 0, 0);" />
    <line x1="180.7455" y1="183.812" x2="157" y2="192" style="stroke: rgb(0, 0, 0);" />
    <line x1="175.4955" y1="174.719" x2="157" y2="192" style="stroke: rgb(0, 0, 0);" />
    <line x1="166.901" y1="168.545" x2="157" y2="192" style="stroke: rgb(0, 0, 0);" />
    <line x1="156.732" y1="166.3645" x2="157" y2="192" style="stroke: rgb(0, 0, 0);" />
    <line x1="146.563" y1="168.545" x2="157" y2="192" style="stroke: rgb(0, 0, 0);" />
    <line x1="137.9685" y1="174.719" x2="157" y2="192" style="stroke: rgb(0, 0, 0);" />
    <line x1="132.6185" y1="183.812" x2="157" y2="192" style="stroke: rgb(0, 0, 0);" />
    <line x1="131.6205" y1="194.2525" x2="157" y2="192" style="stroke: rgb(0, 0, 0);" />
    <line x1="134.864" y1="204.2415" x2="157" y2="192" style="stroke: rgb(0, 0, 0);" />
    <line x1="141.8885" y1="212.142" x2="157" y2="192" style="stroke: rgb(0, 0, 0);" />
  </g>
  <!-- Średni wiatrak -->
  <g>
    <polygon points="30.482,128.312 40.982,128.312 50.5755,124.142 57.6,116.2415 60.8445,106.2525 
                     59.7455,95.812 54.4955,86.719 45.901,80.545 35.732,78.3645 25.563,80.545 
                     16.9685,86.719 11.6185,95.812 10.6205,106.2525 13.864,116.2415 20.8885,124.142"
             style="stroke: rgb(0, 0, 0); fill: none;" transform-origin="36 104">
      <animateTransform attributeName="transform" type="rotate" from="360 36 104" to="360 36 104" dur="3s" repeatCount="indefinite" />
    </polygon>
    <line x1="30.482" y1="128.312" x2="36" y2="104" style="stroke: rgb(0, 0, 0);" />
    <line x1="40.982" y1="128.312" x2="36" y2="104" style="stroke: rgb(0, 0, 0);" />
    <line x1="50.5755" y1="124.142" x2="36" y2="104" style="stroke: rgb(0, 0, 0);" />
    <line x1="57.6" y1="116.2415" x2="36" y2="104" style="stroke: rgb(0, 0, 0);" />
    <line x1="60.8445" y1="106.2525" x2="36" y2="104" style="stroke: rgb(0, 0, 0);" />
    <line x1="59.7455" y1="95.812" x2="36" y2="104" style="stroke: rgb(0, 0, 0);" />
    <line x1="54.4955" y1="86.719" x2="36" y2="104" style="stroke: rgb(0, 0, 0);" />
    <line x1="45.901" y1="80.545" x2="36" y2="104" style="stroke: rgb(0, 0, 0);" />
    <line x1="35.732" y1="78.3645" x2="36" y2="104" style="stroke: rgb(0, 0, 0);" />
    <line x1="25.563" y1="80.545" x2="36" y2="104" style="stroke: rgb(0, 0, 0);" />
    <line x1="16.9685" y1="86.719" x2="36" y2="104" style="stroke: rgb(0, 0, 0);" />
    <line x1="11.6185" y1="95.812" x2="36" y2="104" style="stroke: rgb(0, 0, 0);" />
    <line x1="10.6205" y1="106.2525" x2="36" y2="104" style="stroke: rgb(0, 0, 0);" />
    <line x1="13.864" y1="116.2415" x2="36" y2="104" style="stroke: rgb(0, 0, 0);" />
    <line x1="20.8885" y1="124.142" x2="36" y2="104" style="stroke: rgb(0, 0, 0);" />
  </g>
  <!-- Mały wiatrak -->
  <g>
    <polygon points="309.482,121.312 319.982,121.312 329.5755,117.142 336.6,109.2415 339.8445,99.2525 
                     338.7455,88.812 333.4955,79.719 324.901,73.545 314.732,71.3645 304.563,73.545 
                     295.9685,79.719 290.6185,88.812 289.6205,99.2525 292.864,109.2415 299.8885,117.142"
             style="stroke: rgb(0, 0, 0); fill: none;" transform-origin="315 97">
      <animateTransform attributeName="transform" type="rotate" from="360 315 97" to="360 315 97" dur="3s" repeatCount="indefinite" />
    </polygon>
    <line x1="309.482" y1="121.312" x2="315" y2="97" style="stroke: rgb(0, 0, 0);" />
    <line x1="319.982" y1="121.312" x2="315" y2="97" style="stroke: rgb(0, 0, 0);" />
    <line x1="329.5755" y1="117.142" x2="315" y2="97" style="stroke: rgb(0, 0, 0);" />
    <line x1="336.6" y1="109.2415" x2="315" y2="97" style="stroke: rgb(0, 0, 0);" />
    <line x1="339.8445" y1="99.2525" x2="315" y2="97" style="stroke: rgb(0, 0, 0);" />
    <line x1="338.7455" y1="88.812" x2="315" y2="97" style="stroke: rgb(0, 0, 0);" />
    <line x1="333.4955" y1="79.719" x2="315" y2="97" style="stroke: rgb(0, 0, 0);" />
    <line x1="324.901" y1="73.545" x2="315" y2="97" style="stroke: rgb(0, 0, 0);" />
    <line x1="314.732" y1="71.3645" x2="315" y2="97" style="stroke: rgb(0, 0, 0);" />
    <line x1="304.563" y1="73.545" x2="315" y2="97" style="stroke: rgb(0, 0, 0);" />
    <line x1="295.9685" y1="79.719" x2="315" y2="97" style="stroke: rgb(0, 0, 0);" />
    <line x1="290.6185" y1="88.812" x2="315" y2="97" style="stroke: rgb(0, 0, 0);" />
    <line x1="289.6205" y1="99.2525" x2="315" y2="97" style="stroke: rgb(0, 0, 0);" />
    <line x1="292.864" y1="109.2415" x2="315" y2="97" style="stroke: rgb(0, 0, 0);" />
    <line x1="299.8885" y1="117.142" x2="315" y2="97" style="stroke: rgb(0, 0, 0);" />
  </g>
  <!-- Elementy dodatkowe -->
  <rect x="150" y="210" width="140" height="8" style="fill: rgb(255, 0, 0);" transform="rotate(20, 220, 214)" />
  <path d="M 205 300 L 235 300 L 220 214 L 205 300 Z" style="stroke: rgba(0, 0, 0, 0); fill: rgb(0, 0, 255);" />
  <rect x="30" y="117" width="100" height="6" style="fill: rgb(255, 0, 0);" transform="rotate(20, 80, 120)" />
  <path d="M 70 170 L 90 170 L 80 120 L 70 170 Z" style="stroke: rgba(0, 0, 0, 0); fill: rgb(128, 0, 128);" />
  <rect x="310" y="108" width="80" height="4" style="fill: rgb(255, 0, 0);" transform="rotate(20, 350, 110)" />
  <path d="M 342 150 L 358 150 L 350 110 L 342 150 Z" style="stroke: rgba(0, 0, 0, 0); fill: rgb(0, 128, 0);" />
</svg>
