<?xml version="1.0" encoding="utf-8"?>
<svg viewBox="0 0 500 500" xmlns="http://www.w3.org/2000/svg" xmlns:xlink="http://www.w3.org/1999/xlink">
  <style>
    @keyframes rotate {
      from {
        transform: rotate(0deg);
      }
      to {
        transform: rotate(360deg);
      }
    }
    .rotate {
      animation: rotate 5s linear infinite;
    }
  </style>

  <!-- Duży wiatrak -->
  <polygon class="rotate" points="
    120.0,100.0 
    114.10807642129448,127.05904774487397 
    98.5316954888546,147.55282581475768 
    76.66977700085292,156.699218589617 
    52.57007087893136,151.6335575687742 
    32.93892626146236,134.54915028125265 
    25.89100652418837,109.54915028125262 
    33.83022221559489,84.45084971874738 
    52.93892626146236,69.45084971874736 
    76.66977700085289,63.30078141038301 
    98.5316954888546,72.44717418524232
  " fill="none" stroke="black" transform-origin="70px 100px"/>
  
  <polygon class="rotate" points="
    170.0,100.0 
    164.10807642129448,127.05904774487397 
    148.5316954888546,147.55282581475768 
    126.66977700085292,156.699218589617 
    102.57007087893136,151.6335575687742 
    82.93892626146236,134.54915028125265 
    75.89100652418837,109.54915028125262 
    83.83022221559489,84.45084971874738 
    102.93892626146236,69.45084971874736 
    126.66977700085289,63.30078141038301 
    148.5316954888546,72.44717418524232
  " fill="none" stroke="black" transform-origin="120px 100px"/>

  <!-- Średni wiatrak -->
  <polygon class="rotate" points="
    450.0,100.0 
    444.10807642129448,127.05904774487397 
    428.5316954888546,147.55282581475768 
    406.66977700085292,156.699218589617 
    382.57007087893136,151.6335575687742 
    362.93892626146236,134.54915028125265 
    355.89100652418837,109.54915028125262 
    363.83022221559489,84.45084971874738 
    382.93892626146236,69.45084971874736 
    406.66977700085289,63.30078141038301 
    428.5316954888546,72.44717418524232
  " fill="none" stroke="black" transform-origin="400px 100px"/>
  
  <polygon class="rotate" points="
    400.0,100.0 
    394.10807642129448,127.05904774487397 
    378.5316954888546,147.55282581475768 
    356.66977700085292,156.699218589617 
    332.57007087893136,151.6335575687742 
    312.93892626146236,134.54915028125265 
    305.89100652418837,109.54915028125262 
    313.83022221559489,84.45084971874738 
    332.93892626146236,69.45084971874736 
    356.66977700085289,63.30078141038301 
    378.5316954888546,72.44717418524232
  " fill="none" stroke="black" transform-origin="350px 100px"/>

  <!-- Mały wiatrak -->
  <polygon class="rotate" points="
    200.0,200.0 
    194.10807642129448,227.05904774487397 
    178.5316954888546,247.55282581475768 
    156.66977700085292,256.699218589617 
    132.57007087893136,251.6335575687742 
    112.93892626146236,234.54915028125265 
    105.89100652418837,209.54915028125262 
    113.83022221559489,184.45084971874738 
    132.93892626146236,169.45084971874736 
    156.66977700085289,163.30078141038301 
    178.5316954888546,172.44717418524232
  " fill="none" stroke="black" transform-origin="150px 200px"/>
  
  <polygon class="rotate" points="
    350.0,250.0 
    344.10807642129448,277.05904774487397 
    328.5316954888546,297.55282581475768 
    306.66977700085292,306.699218589617 
    282.57007087893136,301.6335575687742 
    262.93892626146236,284.54915028125265 
    255.89100652418837,259.54915028125262 
    263.83022221559489,234.45084971874738 
    282.93892626146236,219.45084971874736 
    306.66977700085289,213.30078141038301 
    328.5316954888546,222.44717418524232
  " fill="none" stroke="black" transform-origin="300px 250px"/>

  <!-- Elementy dodatkowe -->
  <rect x="150" y="210" width="140" height="8" style="fill: rgb(255, 0, 0);" transform="rotate(20, 220, 214)"/>
  <path d="M 205 300 L 235 300 L 220 214 L 205 300 Z" style="stroke: rgba(0, 0, 0, 0); fill: rgb(0, 0, 255);"/>
  <rect x="30" y="117" width="100" height="6" style="fill: rgb(255, 0, 0);" transform="rotate(20, 80, 120)"/>
  <path d="M 70 170 L 90 170 L 80 120 L 70 170 Z" style="stroke: rgba(0, 0, 0, 0); fill: rgb(128, 0, 128);" />
  <rect x="310" y="108" width="80" height="4" style="fill: rgb(255, 0, 0);" transform="rotate(20, 350, 110)"/>
  <path d="M 342 150 L 358 150 L 350 110 L 342 150 Z" style="stroke: rgba(0, 0, 0, 0); fill: rgb(0, 128, 0);" />
</svg>
